<svg viewBox="0 0 24 24" fill="none" xmlns="http://www.w3.org/2000/svg">
<path fill-rule="evenodd" clip-rule="evenodd" d="M3 6.5C3 6.22386 3.22386 6 3.5 6H21.5C21.7761 6 22 6.22386 22 6.5C22 6.77614 21.7761 7 21.5 7H3.5C3.22386 7 3 6.77614 3 6.5ZM3 12.5C3 12.2239 3.22386 12 3.5 12H21.5C21.7761 12 22 12.2239 22 12.5C22 12.7761 21.7761 13 21.5 13H3.5C3.22386 13 3 12.7761 3 12.5ZM3 18.5C3 18.2239 3.22386 18 3.5 18H21.5C21.7761 18 22 18.2239 22 18.5C22 18.7761 21.7761 19 21.5 19H3.5C3.22386 19 3 18.7761 3 18.5Z" />
</svg>
