<svg viewBox="0 0 16 16" xmlns="http://www.w3.org/2000/svg">
<path fill-rule="evenodd" clip-rule="evenodd" d="M10.3188 12.5603C10.1602 12.6207 10.0241 12.7301 9.93915 12.8769L8.20103 15.8841C8.11171 16.0386 7.88829 16.0386 7.79897 15.8841L6.06085 12.8769C5.97595 12.7301 5.83976 12.6207 5.68118 12.5603C3.23642 11.6274 1.5 9.26258 1.5 6.49276C1.5 2.90693 4.41017 0 8 0C11.5898 0 14.5 2.90693 14.5 6.49276C14.5 9.26258 12.7636 11.6274 10.3188 12.5603ZM8 9.27538C9.53851 9.27538 10.7857 8.02957 10.7857 6.49276C10.7857 4.95596 9.53851 3.71015 8 3.71015C6.46149 3.71015 5.21429 4.95596 5.21429 6.49276C5.21429 8.02957 6.46149 9.27538 8 9.27538Z" />
</svg>
