<svg viewBox="0 0 125 31" xmlns="http://www.w3.org/2000/svg">
<g clip-path="url(#clip0_1391_141066)">
<path d="M62.5281 31.2875C62.5385 31.2875 62.5478 31.2875 62.5582 31.2875C65.9975 31.2875 69.6845 29.9122 71.9594 27.6849C74.2914 25.4027 75.7407 22.2251 75.7438 18.7093C75.7438 18.7041 75.7438 18.7 75.7438 18.6948C75.7438 18.6897 75.7438 18.6855 75.7438 18.6803V0.558594H71.9594V18.6959C71.9594 18.6959 71.9594 18.7052 71.9594 18.7103C71.9512 23.5714 67.4303 27.5101 62.5582 27.5101C62.5478 27.5101 62.5385 27.5101 62.5281 27.5101C62.5178 27.5101 62.5084 27.5101 62.4981 27.5101C57.626 27.5101 53.1041 23.5714 53.0968 18.7103C53.0968 18.7052 53.0968 18.701 53.0968 18.6959V0.558594H49.3125V18.6814C49.3125 18.6814 49.3125 18.6907 49.3125 18.6959C49.3125 18.701 49.3125 18.7052 49.3125 18.7103C49.3166 22.2271 50.7659 25.4037 53.0968 27.6859C55.3728 29.9132 59.0598 31.2885 62.4981 31.2885C62.5084 31.2885 62.5178 31.2885 62.5281 31.2885V31.2875Z"/>
<path d="M41.6826 15.6702C41.6826 3.72066 31.5447 0.568877 19.0294 0.55957H0.0507812V30.7808H19.0294C31.5447 30.7704 41.6826 27.6186 41.6826 15.6702ZM20.8672 27.0034H19.0305H3.83615V4.33696H19.0294C19.6748 4.33696 20.3606 4.33696 20.8662 4.33696C30.2726 4.33696 37.8972 6.69563 37.8972 15.6702C37.8972 24.6447 30.2726 27.0034 20.8662 27.0034H20.8672Z"/>
<path d="M124.949 15.67C124.949 5.47013 117.561 1.22225 107.614 0.190263C106.656 0.0909943 105.69 0.0537684 104.727 0.0527344C104.438 0.0527344 104.205 0.0527344 104.131 0.0527344C104.057 0.0527344 103.824 0.0527344 103.535 0.0527344C102.572 0.0527344 101.606 0.0909943 100.648 0.190263C90.7009 1.22225 83.3125 5.47013 83.3125 15.67C83.3125 25.8699 90.6999 30.1178 100.647 31.1498C101.606 31.249 102.571 31.2863 103.535 31.2873C103.824 31.2873 104.057 31.2873 104.131 31.2873C104.205 31.2873 104.439 31.2873 104.727 31.2873C105.691 31.2873 106.656 31.249 107.615 31.1498C117.562 30.1178 124.949 25.8699 124.949 15.67ZM121.165 15.67C121.165 24.6456 113.539 27.6361 104.134 27.6361H104.128C94.7214 27.6361 87.0968 24.6445 87.0968 15.67C87.0968 6.69445 94.7225 3.70397 104.128 3.70397H104.134C113.541 3.70397 121.165 6.69548 121.165 15.67Z"/>
</g>
<defs>
<clipPath id="clip0_1391_141066">
<rect width="125" height="31" fill="white"/>
</clipPath>
</defs>
</svg>
