<svg viewBox="0 0 20 20" xmlns="http://www.w3.org/2000/svg">
<path d="M3.52839 15.7966L4.43992 18.8092C4.50507 19.025 4.65028 19.2083 4.84621 19.322C5.04214 19.4356 5.27415 19.4712 5.49534 19.4215C5.80759 19.3538 6.11752 19.2758 6.42462 19.1879C10.0635 18.1049 13.119 15.6304 14.9187 12.3086C16.7184 8.98684 17.1151 5.08999 16.0214 1.47532C15.9503 1.24021 15.8447 0.93894 15.7056 0.574435C15.6253 0.363967 15.4676 0.191517 15.2643 0.0918817C15.0611 -0.00775354 14.8274 -0.0271569 14.6105 0.037587L11.5776 0.940215C11.4716 0.971956 11.3812 1.04158 11.3238 1.13567C11.2665 1.22975 11.2463 1.34162 11.2671 1.4497C11.3061 1.65297 11.3353 1.81301 11.3554 1.93757C11.5423 3.16972 11.5397 4.42166 11.3498 5.65295C11.3349 5.74747 11.3542 5.84419 11.4041 5.92603C11.4541 6.00786 11.5316 6.06954 11.6229 6.10015L13.87 6.86402C13.53 9.8186 12.0602 12.5297 9.76427 14.4373L7.88959 12.9975C7.81275 12.9385 7.71751 12.9081 7.62048 12.9117C7.52344 12.9152 7.43078 12.9525 7.35866 13.017C6.30476 13.9615 5.09575 14.7197 3.78395 15.2589C3.68147 15.3008 3.59839 15.3792 3.55089 15.4786C3.50338 15.5781 3.49484 15.6916 3.52692 15.797L3.52839 15.7966Z" />
</svg>
