<svg viewBox="0 0 25 24" fill="none" xmlns="http://www.w3.org/2000/svg">
<path fill-rule="evenodd" clip-rule="evenodd" d="M15.9782 18.8404C15.7404 18.9311 15.5361 19.0951 15.4087 19.3154L12.8015 23.8261C12.6676 24.058 12.3324 24.058 12.1985 23.8261L9.59127 19.3154C9.46392 19.0951 9.25963 18.9311 9.02177 18.8404C5.35464 17.4411 2.75 13.8939 2.75 9.73915C2.75 4.3604 7.11526 0 12.5 0C17.8847 0 22.25 4.3604 22.25 9.73915C22.25 13.8939 19.6454 17.4411 15.9782 18.8404ZM12.5 13.9131C14.8078 13.9131 16.6786 12.0443 16.6786 9.73915C16.6786 7.43395 14.8078 5.56523 12.5 5.56523C10.1922 5.56523 8.32143 7.43395 8.32143 9.73915C8.32143 12.0443 10.1922 13.9131 12.5 13.9131Z" fill="#00963C"/>
</svg>
